<svg width="85" height="84" viewBox="0 0 85 84" fill="none" xmlns="http://www.w3.org/2000/svg">
<g id="B_icon">
<path id="B" d="M20.68 78V25.392L18.76 15.792L20.68 10.032H45.64C50.504 10.032 54.696 10.608 58.216 11.76C61.8 12.848 64.584 14.64 66.568 17.136C68.552 19.632 69.544 22.96 69.544 27.12C69.544 29.68 69.096 32.112 68.2 34.416C67.368 36.656 65.928 38.544 63.88 40.08C67.912 41.488 70.984 43.6 73.096 46.416C75.208 49.232 76.264 52.976 76.264 57.648C76.264 64.752 74.28 69.936 70.312 73.2C66.344 76.4 60.36 78 52.36 78H20.68ZM34.12 37.392H47.368C52.744 37.392 55.432 35.024 55.432 30.288C55.432 27.92 54.888 26.032 53.8 24.624C52.712 23.216 50.568 22.512 47.368 22.512H34.12V37.392ZM34.12 65.52H51.4C54.792 65.52 57.256 64.752 58.792 63.216C60.392 61.68 61.192 59.536 61.192 56.784C61.192 54.16 60.328 52.176 58.6 50.832C56.936 49.488 54.216 48.816 50.44 48.816H34.12V65.52Z" fill="black"/>
<path id="B_2" d="M7.68 78V25.392L5.76 15.792L7.68 10.032H32.64C37.504 10.032 41.696 10.608 45.216 11.76C48.8 12.848 51.584 14.64 53.568 17.136C55.552 19.632 56.544 22.96 56.544 27.12C56.544 29.68 56.096 32.112 55.2 34.416C54.368 36.656 52.928 38.544 50.88 40.08C54.912 41.488 57.984 43.6 60.096 46.416C62.208 49.232 63.264 52.976 63.264 57.648C63.264 64.752 61.28 69.936 57.312 73.2C53.344 76.4 47.36 78 39.36 78H7.68ZM21.12 37.392H34.368C39.744 37.392 42.432 35.024 42.432 30.288C42.432 27.92 41.888 26.032 40.8 24.624C39.712 23.216 37.568 22.512 34.368 22.512H21.12V37.392ZM21.12 65.52H38.4C41.792 65.52 44.256 64.752 45.792 63.216C47.392 61.68 48.192 59.536 48.192 56.784C48.192 54.16 47.328 52.176 45.6 50.832C43.936 49.488 41.216 48.816 37.44 48.816H21.12V65.52Z" fill="#0037FA"/>
</g>
</svg>
