<svg width="220" height="196" viewBox="0 0 220 196" fill="none" xmlns="http://www.w3.org/2000/svg">
<g clip-path="url(#clip0)">
<path d="M216.333 163.333H209V160.067C208.981 155.929 206.046 152.247 201.667 150.868V84.3324C206.046 82.9531 208.981 79.2716 209 75.1336V71.8669C215.075 71.8669 220 67.4794 220 62.0669C220 56.6545 215.075 52.267 209 52.267H206.371L111.922 0.483997C110.744 -0.161983 109.258 -0.161983 108.079 0.483997L13.63 52.267H11.001C4.92578 52.267 0.00100708 56.6545 0.00100708 62.0669C0.00100708 67.4794 4.92578 71.8669 11.001 71.8669V75.1336C11.0202 79.2716 13.9549 82.9531 18.3343 84.3324V150.868C13.9549 152.247 11.0202 155.929 11.001 160.067V163.333H3.66766C1.64275 163.333 0.00100708 164.796 0.00100708 166.6V192.733C0.00100708 194.537 1.64275 196 3.66766 196H216.333C218.358 196 220 194.537 220 192.733V166.6C220 164.796 218.358 163.333 216.333 163.333ZM201.667 75.1336C201.667 76.9376 200.025 78.4002 198 78.4002H183.334C181.309 78.4002 179.667 76.9376 179.667 75.1336V71.8669H201.667V75.1336ZM198 156.8C200.025 156.8 201.667 158.263 201.667 160.067V163.333H179.667V160.067C179.667 158.263 181.309 156.8 183.334 156.8H198ZM187 150.267V84.9335H194.334V150.267H187ZM11.001 65.3336C8.97605 65.3336 7.33431 63.871 7.33431 62.0669C7.33431 60.2629 8.97605 58.8003 11.001 58.8003H36.6675V52.267H27.6219L110.001 7.10224L192.379 52.267H58.6674V58.8003H209C211.025 58.8003 212.667 60.2629 212.667 62.0669C212.667 63.871 211.025 65.3336 209 65.3336H11.001ZM84.334 150.868V84.3324C88.7133 82.9531 91.648 79.2716 91.6673 75.1336V71.8669H128.334V75.1336C128.353 79.2716 131.288 82.9531 135.667 84.3324V150.868C131.288 152.247 128.353 155.929 128.334 160.067V163.333H91.6673V160.067C91.648 155.929 88.7133 152.247 84.334 150.868ZM80.6673 156.8C82.6922 156.8 84.334 158.263 84.334 160.067V163.333H62.3341V160.067C62.3341 158.263 63.9758 156.8 66.0007 156.8H80.6673ZM69.6674 150.267V84.9335H77.0007V150.267H69.6674ZM80.6673 78.4002H66.0007C63.9758 78.4002 62.3341 76.9376 62.3341 75.1336V71.8669H84.334V75.1336C84.334 76.938 82.6922 78.4002 80.6673 78.4002ZM135.667 160.067C135.667 158.263 137.309 156.8 139.334 156.8H154C156.025 156.8 157.667 158.263 157.667 160.067V163.333H135.667V160.067ZM143 150.267V84.9335H150.334V150.267H143ZM154 78.4002H139.334C137.309 78.4002 135.667 76.9376 135.667 75.1336V71.8669H157.667V75.1336C157.667 76.938 156.025 78.4002 154 78.4002ZM22.0009 78.4002C19.976 78.4002 18.3343 76.9376 18.3343 75.1336V71.8669H40.3342V75.1336C40.3342 76.9376 38.6924 78.4002 36.6675 78.4002H22.0009ZM33.0009 84.9335V150.267H25.6676V84.9335H33.0009ZM18.3343 160.067C18.3343 158.263 19.976 156.8 22.0009 156.8H36.6675C38.6924 156.8 40.3342 158.263 40.3342 160.067V163.333H18.3343V160.067V160.067ZM47.6675 189.466H7.33431V169.866H47.6675V189.466ZM40.3342 150.868V84.3324C44.7135 82.9531 47.6482 79.2716 47.6675 75.1336V71.8669H55.0008V75.1336C55.02 79.2716 57.9547 82.9531 62.3341 84.3324V150.868C57.9547 152.247 55.02 155.929 55.0008 160.067V163.333H47.6675V160.067C47.6482 155.929 44.7135 152.247 40.3342 150.868ZM165 189.466H55.0008V182.933H143V176.4H55.0008V169.866H165V189.466ZM157.667 150.868V84.3324C162.046 82.9531 164.981 79.2716 165 75.1336V71.8669H172.334V75.1336C172.353 79.2716 175.288 82.9531 179.667 84.3324V150.868C175.288 152.247 172.353 155.929 172.334 160.067V163.333H165V160.067C164.981 155.929 162.046 152.247 157.667 150.868ZM212.667 189.466H172.334V169.866H212.667V189.466Z" fill="black"/>
<path d="M157.666 176.4H150.333V182.933H157.666V176.4Z" fill="black"/>
<path d="M51.3336 52.2673H44.0003V58.8006H51.3336V52.2673Z" fill="black"/>
<path d="M110 19.6007C101.9 19.6007 95.3334 25.4509 95.3334 32.6673C95.3334 39.8838 101.9 45.7339 110 45.7339C118.1 45.7339 124.667 39.8838 124.667 32.6673C124.667 25.4509 118.1 19.6007 110 19.6007ZM110 39.2006C105.95 39.2006 102.667 36.2757 102.667 32.6673C102.667 29.0589 105.95 26.134 110 26.134C114.05 26.134 117.333 29.0589 117.333 32.6673C117.333 36.2757 114.05 39.2006 110 39.2006Z" fill="black"/>
</g>
<defs>
<clipPath id="clip0">
<rect width="220" height="196" fill="white"/>
</clipPath>
</defs>
</svg>
