<svg width="253" height="179" viewBox="0 0 253 179" fill="none" xmlns="http://www.w3.org/2000/svg">
<path d="M243.34 26.8064L88.3902 1.01366C81.8345 -0.0772657 75.3366 3.2495 73.9497 8.40598L71.0058 23.2862L249.792 53.045L252.736 38.1648C254.123 33.0103 249.896 27.8977 243.34 26.8064Z" fill="black"/>
<path d="M178.18 56.2008C176.37 51.0742 169.559 48.044 163.043 49.4653L133.628 55.8883L64.2831 44.3449L56.6567 72.688L9.00637 83.0907C2.49116 84.5123 -1.36133 89.8697 0.445651 94.9946L27.2994 171.109C29.1092 176.233 35.9209 179.266 42.4361 177.842L196.473 144.219C202.988 142.796 206.84 137.44 205.033 132.313L200.424 119.247L217.7 122.12C224.255 123.213 230.753 119.886 232.14 114.729L243.07 74.1041L180.842 63.7466L178.18 56.2008ZM195.969 94.8851L199.778 80.7234C200.35 78.603 203.023 77.2354 205.719 77.6832L223.723 80.6815C226.422 81.1315 228.16 83.2318 227.591 85.3541L223.782 99.5157C223.209 101.636 220.537 103.006 217.841 102.556L199.837 99.5596C197.136 99.108 195.397 97.0055 195.969 94.8851ZM11.6869 90.6862L54.3147 81.3845L154.895 59.4303L165.718 57.0651C165.916 57.0231 166.113 57.0033 166.306 57.0033C167.174 57.0033 168.212 57.4514 168.515 58.3095L169.786 61.909L173.767 73.1936L15.357 107.77L10.1048 92.8882C9.77571 91.9543 10.5 90.945 11.6869 90.6862ZM195.374 134.419C195.576 134.997 195.364 135.474 195.149 135.773C194.936 136.072 194.526 136.462 193.792 136.621L39.758 170.244C39.5633 170.286 39.3633 170.308 39.1706 170.308C38.3025 170.308 37.2644 169.858 36.961 169L21.298 124.604L179.708 90.0251L189.37 117.407L195.374 134.419Z" fill="black"/>
<path d="M64.6473 137.457C63.9081 135.367 61.1338 134.133 58.476 134.712L40.4869 138.64C37.8316 139.219 36.2599 141.404 36.999 143.494L41.9904 157.642C42.7296 159.732 45.5039 160.966 48.1617 160.385L66.1508 156.459C68.8086 155.88 70.3779 153.695 69.6412 151.605L64.6473 137.457Z" fill="black"/>
</svg>
