<svg width="202" height="164" viewBox="0 0 202 164" fill="none" xmlns="http://www.w3.org/2000/svg">
<path d="M196.224 22.4203C193.252 20.0035 188.431 19.9994 185.459 22.41L94.1281 96.3644L61.176 67.3079C58.3287 64.7986 53.5146 64.6359 50.4187 66.9472C47.3252 69.2589 47.1272 73.1693 49.9745 75.6809L88.2937 109.468C89.6971 110.706 91.661 111.425 93.7319 111.46C93.7876 111.462 93.8412 111.462 93.8945 111.462C95.907 111.462 97.843 110.813 99.2692 109.659L196.209 31.1619C199.188 28.7516 199.193 24.837 196.224 22.4203Z" fill="#00FA82"/>
<path d="M194.387 75.8189C190.182 75.8189 186.774 78.5858 186.774 82C186.774 120.4 148.298 151.638 101 151.638C53.7052 151.638 15.2261 120.4 15.2261 82C15.2261 43.6022 53.7052 12.3618 101 12.3618C105.205 12.3618 108.613 9.59496 108.613 6.18107C108.613 2.76686 105.205 0 101 0C45.308 0 0 36.7847 0 82C0 127.213 45.308 164 101 164C156.69 164 202 127.213 202 82C202 78.5861 198.592 75.8189 194.387 75.8189Z" fill="#00FA82"/>
</svg>
