<svg width="253" height="199" viewBox="0 0 253 199" fill="none" xmlns="http://www.w3.org/2000/svg">
<g id="credit-cards-payment 1" clip-path="url(#clip0)">
<g id="Group">
<g id="Group_2">
<path id="Vector" d="M243.34 36.8064L88.3902 11.0137C81.8345 9.92273 75.3366 13.2495 73.9497 18.406L71.0058 33.2862L249.792 63.045L252.736 48.1648C254.123 43.0103 249.896 37.8977 243.34 36.8064Z" fill="black"/>
<path id="Vector_2" d="M178.18 66.2008C176.37 61.0742 169.559 58.044 163.043 59.4653L133.628 65.8883L64.2831 54.3449L56.6567 82.688L9.00637 93.0907C2.49116 94.5123 -1.36132 99.8697 0.445655 104.995L27.2994 181.109C29.1092 186.233 35.9209 189.266 42.4361 187.842L196.473 154.219C202.988 152.796 206.84 147.44 205.033 142.313L200.424 129.247L217.7 132.12C224.255 133.213 230.753 129.886 232.14 124.729L243.07 84.1041L180.842 73.7466L178.18 66.2008ZM195.969 104.885L199.778 90.7234C200.35 88.603 203.023 87.2354 205.719 87.6832L223.723 90.6815C226.422 91.1315 228.16 93.2318 227.591 95.3541L223.782 109.516C223.209 111.636 220.537 113.006 217.841 112.556L199.837 109.56C197.136 109.108 195.397 107.005 195.969 104.885ZM11.6869 100.686L54.3147 91.3845L154.895 69.4303L165.718 67.0651C165.916 67.0231 166.113 67.0033 166.306 67.0033C167.174 67.0033 168.212 67.4514 168.515 68.3095L169.786 71.909L173.767 83.1936L15.357 117.77L10.1048 102.888C9.77571 101.954 10.5 100.945 11.6869 100.686ZM195.374 144.419C195.576 144.997 195.364 145.474 195.149 145.773C194.936 146.072 194.526 146.462 193.792 146.621L39.7581 180.244C39.5633 180.286 39.3633 180.308 39.1706 180.308C38.3025 180.308 37.2644 179.858 36.961 179L21.298 134.604L179.708 100.025L189.37 127.407L195.374 144.419Z" fill="black"/>
<path id="Vector_3" d="M64.6473 147.457C63.9081 145.367 61.1338 144.133 58.476 144.712L40.4869 148.64C37.8316 149.219 36.2599 151.404 36.999 153.494L41.9904 167.642C42.7296 169.732 45.5039 170.966 48.1617 170.385L66.1508 166.459C68.8086 165.88 70.3779 163.695 69.6412 161.605L64.6473 147.457Z" fill="black"/>
</g>
</g>
<g id="add 2">
<g id="Group_3">
<g id="Group_4">
<path id="Vector_4" d="M213.5 150C197.233 150 184 160.99 184 174.5C184 188.01 197.233 199 213.5 199C229.767 199 243 188.008 243 174.5C243 160.992 229.767 150 213.5 150ZM213.5 195.205C199.755 195.205 188.57 185.917 188.57 174.5C188.57 163.083 199.755 153.795 213.5 153.795C227.245 153.795 238.43 163.083 238.43 174.5C238.43 185.917 227.247 195.205 213.5 195.205Z" fill="black"/>
</g>
</g>
<g id="Group_5">
<g id="Group_6">
<path id="Vector_5" d="M224.925 172.431H215.785V164.84C215.785 163.793 214.764 162.943 213.5 162.943C212.236 162.943 211.215 163.793 211.215 164.84V172.431H202.075C200.811 172.431 199.79 173.282 199.79 174.329C199.79 175.377 200.811 176.227 202.075 176.227H211.215V183.818C211.215 184.866 212.236 185.716 213.5 185.716C214.764 185.716 215.785 184.866 215.785 183.818V176.227H224.925C226.189 176.227 227.21 175.377 227.21 174.329C227.21 173.282 226.189 172.431 224.925 172.431Z" fill="black"/>
</g>
</g>
</g>
</g>
<defs>
<clipPath id="clip0">
<rect width="253" height="199" fill="white"/>
</clipPath>
</defs>
</svg>
