<svg width="555" height="469" viewBox="0 0 555 469" fill="none" xmlns="http://www.w3.org/2000/svg">
<g id="cyber-security 1" filter="url(#filter0_d)">
<g id="Processor security">
<path id="Vector" d="M234.141 80.6094H251.484V95.2656H234.141V80.6094Z" fill="#2196F3"/>
<path id="Vector_2" d="M459.609 256.484H476.953V271.141H459.609V256.484Z" fill="#2196F3"/>
<path id="Vector_3" d="M303.516 373.734H320.859V388.391H303.516V373.734Z" fill="#2196F3"/>
<path id="Vector_4" d="M234.141 395.719H251.484V410.375H234.141V395.719Z" fill="url(#paint0_linear)"/>
<path id="Vector_5" d="M95.3906 227.172H112.734V241.828H95.3906V227.172Z" fill="#2196F3"/>
<path id="Vector_6" d="M303.516 80.6094H320.859V95.2656H303.516V80.6094Z" fill="#2196F3"/>
<path id="Vector_7" d="M442.266 197.859H459.609V212.516H442.266V197.859Z" fill="#2196F3"/>
<path id="Vector_8" d="M398.906 124.578H416.25V139.234H398.906V124.578Z" fill="#2196F3"/>
<path id="Vector_9" d="M138.75 124.578H156.094V139.234H138.75V124.578Z" fill="#2196F3"/>
<path id="Vector_10" d="M398.906 329.766H416.25V344.422H398.906V329.766Z" fill="#2196F3"/>
<path id="Vector_11" d="M138.75 329.766H156.094V344.422H138.75V329.766Z" fill="#2196F3"/>
<g id="Group">
<path id="Vector_12" d="M276.477 227.172C270.412 227.337 264.607 229.293 260.071 232.698C255.534 236.104 252.553 240.745 251.644 245.815C250.735 250.884 251.956 256.063 255.095 260.452C258.234 264.84 263.093 268.16 268.828 269.836V285.797H286.172V269.785C292.047 268.046 296.987 264.581 300.091 260.021C303.195 255.461 304.256 250.11 303.081 244.944C301.905 239.778 298.572 235.141 293.688 231.878C288.805 228.616 282.696 226.946 276.477 227.172ZM286.172 248.87C286.217 249.832 286.038 250.792 285.644 251.696C285.25 252.599 284.649 253.428 283.876 254.135C283.103 254.842 282.173 255.414 281.138 255.817C280.104 256.22 278.985 256.447 277.847 256.484C276.707 256.522 275.569 256.369 274.5 256.035C273.43 255.7 272.448 255.191 271.612 254.535C270.351 253.552 269.464 252.274 269.063 250.865C268.661 249.455 268.764 247.977 269.357 246.617C269.95 245.256 271.008 244.075 272.395 243.223C273.783 242.371 275.439 241.885 277.153 241.828H277.5C279.741 241.827 281.896 242.558 283.512 243.87C285.129 245.181 286.082 246.971 286.172 248.863V248.87Z" fill="#2196F3"/>
<path id="Vector_13" d="M320.859 206.536V197.859C320.859 188.142 316.291 178.822 308.16 171.951C300.028 165.079 289 161.219 277.5 161.219C266 161.219 254.972 165.079 246.84 171.951C238.709 178.822 234.141 188.142 234.141 197.859V206.536C229.086 208.046 224.706 210.839 221.602 214.533C218.497 218.227 216.819 222.641 216.797 227.172V285.797C216.797 291.627 219.538 297.219 224.417 301.342C229.296 305.465 235.913 307.781 242.812 307.781H312.188C319.087 307.781 325.704 305.465 330.583 301.342C335.462 297.219 338.203 291.627 338.203 285.797V227.172C338.181 222.641 336.503 218.227 333.398 214.533C330.294 210.839 325.914 208.046 320.859 206.536V206.536ZM251.484 197.859C251.484 192.029 254.225 186.437 259.104 182.314C263.983 178.191 270.6 175.875 277.5 175.875C284.4 175.875 291.017 178.191 295.896 182.314C300.775 186.437 303.516 192.029 303.516 197.859V205.188H251.484V197.859ZM320.859 285.797C320.859 287.74 319.946 289.604 318.319 290.979C316.693 292.353 314.487 293.125 312.188 293.125H242.812C240.513 293.125 238.307 292.353 236.681 290.979C235.054 289.604 234.141 287.74 234.141 285.797V227.172C234.141 225.228 235.054 223.364 236.681 221.99C238.307 220.616 240.513 219.844 242.812 219.844H312.188C314.487 219.844 316.693 220.616 318.319 221.99C319.946 223.364 320.859 225.228 320.859 227.172V285.797Z" fill="#2196F3"/>
<path id="Vector_14" d="M511.641 300.453C507.777 300.466 503.968 301.217 500.497 302.652L480.552 285.797H398.906V271.141H442.266V256.484H398.906V241.828H444.312L493.629 220.987C497.951 224.485 503.571 226.615 509.538 227.014C515.504 227.414 521.451 226.059 526.371 223.179C531.291 220.3 534.883 216.072 536.539 211.212C538.195 206.351 537.812 201.157 535.457 196.507C533.101 191.858 528.917 188.039 523.613 185.696C518.308 183.354 512.209 182.633 506.347 183.654C500.485 184.675 495.221 187.376 491.445 191.3C487.668 195.224 485.613 200.13 485.625 205.188C485.666 206.079 485.773 206.967 485.946 207.848L440.219 227.172H398.906V212.516H424.922V197.859H398.906V183.203H437.184L465.801 159.02C469.274 160.456 473.087 161.207 476.953 161.219C482.099 161.219 487.128 159.929 491.407 157.514C495.685 155.098 499.019 151.665 500.988 147.647C502.957 143.63 503.473 139.21 502.469 134.945C501.465 130.681 498.987 126.764 495.349 123.689C491.711 120.615 487.075 118.521 482.028 117.672C476.982 116.824 471.751 117.26 466.997 118.923C462.244 120.587 458.181 123.405 455.322 127.021C452.463 130.636 450.937 134.886 450.937 139.234C450.952 142.499 451.842 145.718 453.539 148.651L430.004 168.547H398.906C398.892 158.833 394.32 149.52 386.191 142.651C378.063 135.782 367.042 131.918 355.547 131.906V112.956L405.107 71.0828C408.577 72.517 412.387 73.2686 416.25 73.2813C421.395 73.2813 426.425 71.9919 430.703 69.5762C434.982 67.1605 438.316 63.7271 440.285 59.7099C442.254 55.6928 442.77 51.2725 441.766 47.0079C440.762 42.7434 438.284 38.8262 434.646 35.7516C431.007 32.677 426.372 30.5832 421.325 29.7349C416.279 28.8867 411.048 29.322 406.294 30.986C401.541 32.6499 397.477 35.4677 394.619 39.083C391.76 42.6983 390.234 46.9488 390.234 51.2969C390.249 54.5615 391.139 57.7808 392.836 60.7135L338.203 106.881V131.906H320.859V109.922H303.516V131.906H286.172V79.261C291.958 77.5323 296.834 74.1308 299.94 69.6576C303.045 65.1845 304.179 59.9277 303.141 54.8163C302.103 49.705 298.961 45.0683 294.268 41.7256C289.576 38.3829 283.637 36.5496 277.5 36.5496C271.363 36.5496 265.424 38.3829 260.732 41.7256C256.039 45.0683 252.897 49.705 251.859 54.8163C250.821 59.9277 251.955 65.1845 255.06 69.6576C258.166 74.1308 263.042 77.5323 268.828 79.261V131.906H251.484V109.922H234.141V131.906H216.797V77.5755L179.508 46.0646C181.206 43.1297 182.096 39.9077 182.109 36.6406C182.109 32.2925 180.584 28.0421 177.725 24.4268C174.866 20.8115 170.803 17.9937 166.05 16.3297C161.296 14.6658 156.065 14.2304 151.018 15.0787C145.972 15.927 141.336 18.0208 137.698 21.0953C134.06 24.1699 131.582 28.0871 130.578 32.3517C129.574 36.6162 130.089 41.0366 132.058 45.0537C134.027 49.0708 137.362 52.5043 141.64 54.92C145.918 57.3356 150.948 58.625 156.094 58.625C159.957 58.6124 163.767 57.8608 167.237 56.4266L199.453 83.6432V131.906C187.958 131.918 176.937 135.782 168.809 142.651C160.68 149.52 156.108 158.833 156.094 168.547H124.996L101.461 148.651C103.158 145.718 104.048 142.499 104.062 139.234C104.062 134.886 102.537 130.636 99.6781 127.021C96.8194 123.405 92.7564 120.587 88.0026 118.923C83.2489 117.26 78.018 116.824 72.9715 117.672C67.9249 118.521 63.2894 120.615 59.651 123.689C56.0127 126.764 53.535 130.681 52.5311 134.945C51.5273 139.21 52.0425 143.63 54.0116 147.647C55.9806 151.665 59.3151 155.098 63.5934 157.514C67.8716 159.929 72.9015 161.219 78.0469 161.219C81.9101 161.206 85.7198 160.455 89.1902 159.02L117.807 183.203H156.094V197.859H100.923L55.5 229.839C51.7774 228.113 47.6054 227.197 43.3594 227.172C38.214 227.172 33.1841 228.461 28.9059 230.877C24.6276 233.293 21.2931 236.726 19.3241 240.743C17.355 244.76 16.8398 249.181 17.8436 253.445C18.8474 257.71 21.3252 261.627 24.9635 264.702C28.6019 267.776 33.2374 269.87 38.284 270.718C43.3305 271.566 48.5614 271.131 53.3151 269.467C58.0689 267.803 62.1319 264.985 64.9906 261.37C67.8492 257.755 69.375 253.504 69.375 249.156C69.3808 246.215 68.6817 243.304 67.3198 240.597L107.202 212.516H156.094V227.172H130.078V241.828H156.094V256.484H78.0469V271.141H156.094V285.797H108.095L73.1473 330.088C71.9009 329.902 70.6401 329.795 69.375 329.766C63.342 329.719 57.4739 331.429 52.7577 334.609C48.0415 337.788 44.7649 342.243 43.479 347.225C42.193 352.206 42.9762 357.409 45.6967 361.96C48.4172 366.511 52.9092 370.131 58.4171 372.212C63.9251 374.292 70.1129 374.707 75.94 373.386C81.7671 372.064 86.8779 369.087 90.413 364.956C93.948 360.824 95.6916 355.79 95.3504 350.7C95.0093 345.609 92.6043 340.774 88.5398 337.006L117.374 300.453H156.094C156.108 310.167 160.68 319.48 168.809 326.349C176.937 333.218 187.958 337.082 199.453 337.094V385.357L167.237 412.573C163.767 411.139 159.957 410.388 156.094 410.375C150.948 410.375 145.918 411.664 141.64 414.08C137.362 416.496 134.027 419.929 132.058 423.946C130.089 427.963 129.574 432.384 130.578 436.648C131.582 440.913 134.06 444.83 137.698 447.905C141.336 450.979 145.972 453.073 151.018 453.921C156.065 454.77 161.296 454.334 166.05 452.67C170.803 451.006 174.866 448.189 177.725 444.573C180.584 440.958 182.109 436.707 182.109 432.359C182.094 429.095 181.205 425.875 179.508 422.943L216.797 391.432V337.094H234.141V381.062H251.484V337.094H268.828V399.779L321.501 427.625C320.086 432.76 320.867 438.152 323.708 442.845C326.549 447.538 331.265 451.23 337.02 453.265C342.774 455.3 349.196 455.547 355.146 453.962C361.096 452.377 366.189 449.063 369.522 444.607C372.856 440.151 374.214 434.841 373.356 429.62C372.498 424.398 369.48 419.602 364.836 416.082C360.192 412.562 354.223 410.545 347.987 410.39C341.752 410.235 335.652 411.951 330.771 415.234L286.172 391.659V337.094H303.516V359.078H320.859V337.094H338.203V395.719H400.502C402.548 400.608 406.573 404.729 411.866 407.353C417.16 409.977 423.38 410.935 429.429 410.058C435.478 409.181 440.965 406.526 444.92 402.561C448.876 398.596 451.045 393.577 451.045 388.391C451.045 383.205 448.876 378.186 444.92 374.221C440.965 370.256 435.478 367.6 429.429 366.723C423.38 365.846 417.16 366.804 411.866 369.428C406.573 372.052 402.548 376.173 400.502 381.062H355.547V337.094C367.042 337.082 378.063 333.218 386.191 326.349C394.32 319.48 398.892 310.167 398.906 300.453H473.363L488.227 313.021C486.529 315.954 485.64 319.173 485.625 322.438C485.625 326.786 487.151 331.036 490.009 334.651C492.868 338.267 496.931 341.084 501.685 342.748C506.439 344.412 511.669 344.848 516.716 343.999C521.763 343.151 526.398 341.057 530.036 337.983C533.675 334.908 536.153 330.991 537.156 326.726C538.16 322.462 537.645 318.042 535.676 314.024C533.707 310.007 530.372 306.574 526.094 304.158C521.816 301.742 516.786 300.453 511.641 300.453V300.453ZM511.641 197.859C513.356 197.859 515.032 198.289 516.458 199.094C517.885 199.9 518.996 201.044 519.652 202.383C520.309 203.722 520.48 205.196 520.146 206.617C519.811 208.039 518.985 209.344 517.773 210.369C516.56 211.394 515.015 212.092 513.332 212.375C511.65 212.658 509.907 212.512 508.322 211.958C506.737 211.403 505.383 210.464 504.43 209.259C503.477 208.054 502.969 206.637 502.969 205.188C502.969 203.244 503.882 201.38 505.509 200.006C507.135 198.631 509.341 197.859 511.641 197.859ZM476.953 131.906C478.668 131.906 480.345 132.336 481.771 133.141C483.197 133.946 484.309 135.091 484.965 136.43C485.621 137.769 485.793 139.243 485.458 140.664C485.124 142.086 484.298 143.391 483.085 144.416C481.872 145.441 480.327 146.139 478.645 146.422C476.963 146.704 475.219 146.559 473.635 146.005C472.05 145.45 470.696 144.511 469.743 143.306C468.79 142.101 468.281 140.684 468.281 139.234C468.281 137.291 469.195 135.427 470.821 134.053C472.447 132.678 474.653 131.906 476.953 131.906ZM416.25 43.9688C417.965 43.9688 419.642 44.3985 421.068 45.2038C422.494 46.009 423.605 47.1535 424.262 48.4925C424.918 49.8316 425.09 51.305 424.755 52.7265C424.421 54.148 423.595 55.4538 422.382 56.4787C421.169 57.5035 419.624 58.2014 417.942 58.4842C416.26 58.767 414.516 58.6218 412.931 58.0672C411.347 57.5125 409.992 56.5733 409.04 55.3682C408.087 54.1631 407.578 52.7463 407.578 51.2969C407.578 49.3533 408.492 47.4894 410.118 46.1151C411.744 44.7408 413.95 43.9688 416.25 43.9688V43.9688ZM277.5 51.2969C279.215 51.2969 280.892 51.7267 282.318 52.5319C283.744 53.3371 284.855 54.4816 285.512 55.8207C286.168 57.1597 286.34 58.6331 286.005 60.0547C285.671 61.4762 284.845 62.7819 283.632 63.8068C282.419 64.8316 280.874 65.5296 279.192 65.8123C277.51 66.0951 275.766 65.95 274.181 65.3953C272.597 64.8407 271.242 63.9014 270.29 62.6963C269.337 61.4912 268.828 60.0744 268.828 58.625C268.828 56.6815 269.742 54.8175 271.368 53.4432C272.994 52.069 275.2 51.2969 277.5 51.2969V51.2969ZM147.422 36.6406C147.422 35.1913 147.93 33.7745 148.883 32.5693C149.836 31.3642 151.191 30.425 152.775 29.8703C154.36 29.3157 156.103 29.1706 157.786 29.4533C159.468 29.7361 161.013 30.434 162.226 31.4589C163.438 32.4837 164.264 33.7895 164.599 35.211C164.934 36.6325 164.762 38.1059 164.106 39.445C163.449 40.784 162.338 41.9285 160.912 42.7337C159.486 43.539 157.809 43.9688 156.094 43.9688C153.794 43.9688 151.588 43.1967 149.962 41.8224C148.336 40.4481 147.422 38.5842 147.422 36.6406ZM69.375 139.234C69.375 137.785 69.8836 136.368 70.8365 135.163C71.7894 133.958 73.1437 133.019 74.7283 132.464C76.3129 131.909 78.0565 131.764 79.7387 132.047C81.4208 132.33 82.966 133.028 84.1788 134.053C85.3916 135.077 86.2175 136.383 86.5521 137.805C86.8867 139.226 86.715 140.7 86.0586 142.039C85.4023 143.378 84.2908 144.522 82.8647 145.328C81.4386 146.133 79.762 146.563 78.0469 146.563C75.7469 146.563 73.5412 145.79 71.9149 144.416C70.2886 143.042 69.375 141.178 69.375 139.234ZM43.3594 256.484C41.6442 256.484 39.9676 256.055 38.5415 255.249C37.1155 254.444 36.004 253.3 35.3476 251.961C34.6912 250.622 34.5195 249.148 34.8541 247.727C35.1887 246.305 36.0146 244.999 37.2274 243.974C38.4402 242.95 39.9854 242.252 41.6676 241.969C43.3498 241.686 45.0934 241.831 46.678 242.386C48.2625 242.941 49.6169 243.88 50.5698 245.085C51.5226 246.29 52.0312 247.707 52.0312 249.156C52.0312 251.1 51.1176 252.964 49.4913 254.338C47.865 255.712 45.6593 256.484 43.3594 256.484ZM69.375 359.078C67.6599 359.078 65.9832 358.648 64.5572 357.843C63.1311 357.038 62.0196 355.893 61.3632 354.554C60.7069 353.215 60.5351 351.742 60.8697 350.32C61.2044 348.899 62.0303 347.593 63.2431 346.568C64.4558 345.543 66.001 344.845 67.6832 344.563C69.3654 344.28 71.109 344.425 72.6936 344.98C74.2782 345.534 75.6325 346.474 76.5854 347.679C77.5383 348.884 78.0469 350.301 78.0469 351.75C78.0469 353.694 77.1332 355.557 75.5069 356.932C73.8806 358.306 71.6749 359.078 69.375 359.078V359.078ZM156.094 439.688C154.379 439.688 152.702 439.258 151.276 438.452C149.85 437.647 148.738 436.503 148.082 435.164C147.426 433.825 147.254 432.351 147.588 430.93C147.923 429.508 148.749 428.202 149.962 427.178C151.175 426.153 152.72 425.455 154.402 425.172C156.084 424.889 157.828 425.034 159.412 425.589C160.997 426.144 162.351 427.083 163.304 428.288C164.257 429.493 164.766 430.91 164.766 432.359C164.766 434.303 163.852 436.167 162.226 437.541C160.599 438.915 158.394 439.688 156.094 439.688ZM346.875 425.031C348.59 425.031 350.267 425.461 351.693 426.266C353.119 427.071 354.23 428.216 354.887 429.555C355.543 430.894 355.715 432.368 355.38 433.789C355.046 435.211 354.22 436.516 353.007 437.541C351.794 438.566 350.249 439.264 348.567 439.547C346.885 439.829 345.141 439.684 343.556 439.13C341.972 438.575 340.617 437.636 339.665 436.431C338.712 435.226 338.203 433.809 338.203 432.359C338.203 430.416 339.117 428.552 340.743 427.178C342.369 425.803 344.575 425.031 346.875 425.031ZM424.922 381.062C426.637 381.062 428.314 381.492 429.74 382.298C431.166 383.103 432.277 384.247 432.934 385.586C433.59 386.925 433.762 388.399 433.427 389.82C433.093 391.242 432.267 392.548 431.054 393.572C429.841 394.597 428.296 395.295 426.614 395.578C424.931 395.861 423.188 395.716 421.603 395.161C420.019 394.606 418.664 393.667 417.711 392.462C416.759 391.257 416.25 389.84 416.25 388.391C416.25 386.447 417.164 384.583 418.79 383.209C420.416 381.835 422.622 381.062 424.922 381.062ZM381.562 300.453C381.562 306.284 378.822 311.876 373.943 315.998C369.064 320.121 362.447 322.438 355.547 322.438H199.453C192.553 322.438 185.936 320.121 181.057 315.998C176.178 311.876 173.438 306.284 173.438 300.453V168.547C173.438 162.716 176.178 157.124 181.057 153.002C185.936 148.879 192.553 146.563 199.453 146.563H355.547C362.447 146.563 369.064 148.879 373.943 153.002C378.822 157.124 381.562 162.716 381.562 168.547V300.453ZM511.641 329.766C509.925 329.766 508.249 329.336 506.823 328.531C505.397 327.725 504.285 326.581 503.629 325.242C502.973 323.903 502.801 322.429 503.135 321.008C503.47 319.586 504.296 318.281 505.509 317.256C506.721 316.231 508.267 315.533 509.949 315.25C511.631 314.967 513.375 315.113 514.959 315.667C516.544 316.222 517.898 317.161 518.851 318.366C519.804 319.571 520.312 320.988 520.312 322.438C520.312 324.381 519.399 326.245 517.773 327.619C516.146 328.994 513.941 329.766 511.641 329.766Z" fill="#2196F3"/>
</g>
</g>
</g>
<defs>
<filter id="filter0_d" x="-4" y="0" width="563" height="477" filterUnits="userSpaceOnUse" color-interpolation-filters="sRGB">
<feFlood flood-opacity="0" result="BackgroundImageFix"/>
<feColorMatrix in="SourceAlpha" type="matrix" values="0 0 0 0 0 0 0 0 0 0 0 0 0 0 0 0 0 0 127 0"/>
<feOffset dy="4"/>
<feGaussianBlur stdDeviation="2"/>
<feColorMatrix type="matrix" values="0 0 0 0 0 0 0 0 0 0 0 0 0 0 0 0 0 0 0.25 0"/>
<feBlend mode="normal" in2="BackgroundImageFix" result="effect1_dropShadow"/>
<feBlend mode="normal" in="SourceGraphic" in2="effect1_dropShadow" result="shape"/>
</filter>
<linearGradient id="paint0_linear" x1="242.812" y1="464.259" x2="242.812" y2="18.4156" gradientUnits="userSpaceOnUse">
<stop stop-color="#006DF0"/>
<stop offset="1" stop-color="#00E7F0"/>
</linearGradient>
</defs>
</svg>
