<svg width="654" height="581" viewBox="0 0 654 581" fill="none" xmlns="http://www.w3.org/2000/svg">
<g id="globe 1">
<path id="Vector" d="M326.978 580.982C507.563 580.982 653.956 450.929 653.956 290.501C653.956 130.073 507.563 0.0206299 326.978 0.0206299C146.393 0.0206299 0 130.073 0 290.501C0 450.929 146.393 580.982 326.978 580.982Z" fill="#2196F3"/>
<g id="Group">
<path id="Vector_2" d="M168.074 534.252C168.012 534.361 167.93 534.434 167.869 534.543C168.36 534.652 168.831 534.798 169.322 534.888L168.074 534.252Z" fill="#E9EFF4"/>
<path id="Vector_3" d="M147.504 124.841L146.849 123.659C152.314 122.932 152.683 119.513 156.837 118.259C161.565 116.877 159.948 118.386 164.594 118.259C168.36 118.113 170.652 120.55 174.95 118.768C173.907 120.404 172.208 121.532 170.509 122.641C166.968 124.877 163.346 127.168 159.13 128.041C154.913 128.896 149.96 127.986 147.504 124.841Z" fill="#E9EFF4"/>
<path id="Vector_4" d="M212.917 383.757C212.835 386.321 211.136 388.557 209.662 390.721C203.092 400.248 199.101 411.285 198.221 422.467C197.341 433.177 197.873 446.377 187.374 451.65C181.377 454.614 172.945 454.086 168.954 459.086C167.705 460.595 167.112 462.505 166.518 464.287C163.939 472.632 161.34 480.978 158.761 489.324C155.425 489.069 152.028 488.742 148.712 488.414C152.642 489.524 155.364 494.251 153.01 497.487C149.244 495.724 144.291 497.815 142.204 501.178C140.218 504.524 140.505 508.597 141.61 512.288C145.028 523.197 155.527 531.997 167.889 534.616C165.74 538.234 159.171 536.652 155.159 534.234C126.526 517.033 104.913 490.833 95.048 461.396C91.5686 451.013 89.3377 439.977 82.5223 431.049C76.8325 423.504 68.2364 417.976 62.5466 410.431C54.5646 399.594 53.0705 385.539 43.8195 375.63C38.6414 369.975 30.6388 363.029 35.2234 356.975C37.0654 354.484 40.9951 352.12 39.4396 349.483C38.9279 348.629 37.8841 348.102 37.0654 347.374C33.9545 344.411 36.1035 339.756 37.659 335.938C40.2378 329.301 40.2378 322.21 39.1326 315.119C31.3552 308.937 25.2151 301.264 21.3674 292.645C19.0751 287.391 16.0255 280.827 9.68078 280.754C8.04344 276.681 6.34469 272.609 4.70734 268.536C4.1138 269.99 2.49692 270.899 0.716309 271.099C5.62835 204.534 35.8374 144.132 82.8497 97.331C83.8935 96.931 84.9169 96.4037 85.9607 95.8765C97.1151 90.0945 105.998 81.4215 116.784 75.1122C118.994 73.8031 121.512 72.5485 124.254 72.8031C126.915 73.0031 129.432 75.4213 128.47 77.6578C128.102 78.5851 127.222 79.3124 126.321 79.8942C113.693 89.4399 99.8577 97.7856 85.142 104.695C83.3819 105.477 81.5194 106.404 80.7212 107.986C79.2271 110.677 81.7445 114.022 84.9374 115.004C88.1097 115.986 91.671 115.404 94.9252 114.75C92.1826 118.223 91.3639 122.895 92.7762 126.968C95.8053 127.223 96.7672 123.55 97.6677 120.986C101.352 110.804 119.629 106.659 118.442 95.931C123.395 98.222 128.429 93.0946 131.458 88.8944C134.488 84.6216 141.221 80.4215 144.926 84.167C145.13 86.258 145.417 88.3671 145.642 90.4763C152.15 89.0217 158.741 87.5126 165.249 86.058C161.545 88.3671 160.296 93.2946 162.425 96.8401C164.574 100.386 169.895 102.168 174.111 100.713C174.05 103.804 170.939 106.168 168.115 108.004C160.951 112.804 153.256 117.732 144.905 120.095L146.829 123.641C146.624 123.714 146.399 123.786 146.174 123.786C140.853 124.241 135.224 120.841 129.535 121.495C126.055 121.895 121.778 121.895 119.772 125.041C119.485 125.441 118.237 130.95 119.117 130.496C122.228 128.914 125.318 127.332 128.368 125.768C129.309 128.005 129.535 130.496 129.023 132.932C132.789 132.605 136.718 133.314 140.055 135.096C136.575 142.26 127.631 147.06 118.83 146.46C118.749 144.096 118.605 141.732 118.523 139.369C111.278 138.841 105.363 144.369 101.741 149.896C98.0566 155.478 95.2526 161.86 89.174 165.406C85.49 167.642 80.9668 168.497 76.9758 170.333C73.0666 172.242 69.444 175.86 70.2626 179.733C70.631 181.57 71.9614 183.279 71.9 185.188C71.6748 188.734 67.0289 190.388 63.9179 192.679C58.5965 196.625 57.2662 203.861 51.5764 207.334C47.4421 209.898 41.957 209.843 37.1473 211.152C32.3376 212.461 27.5279 216.734 29.4722 220.88C27.0981 221.607 24.2122 220.025 23.9871 217.789C15.4934 232.644 9.88545 248.808 7.59317 265.372C11.8093 267.99 16.0869 262.008 16.9056 257.481C17.7857 252.953 22.227 247.026 26.3613 249.717C25.3993 256.226 24.4374 262.663 23.4959 269.172C23.2708 270.427 23.1275 271.736 23.8029 272.845C24.6216 274.227 26.3817 274.809 27.7325 275.79C31.4984 278.681 30.9868 283.809 31.2119 288.209C31.437 293.591 33.4428 298.846 36.6151 303.446C36.3081 302.518 36.1035 301.609 35.8783 300.682C41.65 301.337 47.6468 299.682 52.0062 296.264C54.2985 294.427 56.2224 292.064 59.1082 291.136C62.0759 290.154 65.3301 290.864 68.3592 291.591C77.7535 293.882 87.7413 296.446 94.0246 303.009C97.197 306.355 99.2028 310.573 102.989 313.319C111.565 319.755 126.076 316.919 133.915 324.083C140.198 329.865 139.031 339.192 137.332 347.138C133.034 345.047 127.283 350.302 129.801 354.047C132.093 351.811 134.754 349.447 138.09 349.447C141.487 349.374 144.455 353.52 141.938 355.429C147.852 348.72 162.343 351.483 164.635 359.829C172.924 360.356 181.275 360.866 189.564 361.466C187.967 372.266 213.428 372.902 212.917 383.757Z" fill="#E9EFF4"/>
<path id="Vector_5" d="M162.507 79.7669C159.314 81.167 154.913 79.5851 153.726 76.6032C152.519 73.6213 154.791 69.9303 158.27 69.2212C160.46 68.7666 163.51 68.9848 164.185 67.0757C164.39 66.4938 164.267 65.8575 164.267 65.2574C164.185 61.6573 167.808 58.6754 171.717 57.7663C175.626 56.8754 179.76 57.5663 183.731 58.2573C185.143 60.8573 185.552 63.8756 184.877 66.6938C182.155 66.8029 179.433 66.8939 176.711 67.0029C176.956 71.0212 176.506 76.0759 172.31 77.5669C168.544 78.8942 163.632 76.4214 160.501 78.676" fill="#E9EFF4"/>
<path id="Vector_6" d="M204.894 39.6386C212.323 36.4749 218.606 31.4929 225.933 28.1474C238.541 22.4017 253.257 21.8926 267.42 21.4926C299.655 20.6017 331.89 19.7108 364.126 18.8198C356.655 22.4563 349.185 26.1109 341.694 29.7474C335.595 32.7293 328.657 35.7839 321.964 34.093C321.821 38.8749 326.712 43.3114 332.115 43.275C318.873 50.548 300.494 43.1114 286.515 49.2207C280.662 51.7844 275.934 56.6209 269.487 57.53C265.762 58.0573 261.894 57.1663 258.189 57.8936C251.988 59.0937 248.079 64.312 243.494 68.203C238.214 72.694 230.457 75.7668 223.559 73.6213C216.662 71.4758 213.06 62.3665 218.586 58.1118C221.308 56.0208 225.197 55.6754 228.41 54.2026C231.623 52.748 234.161 48.8388 231.746 46.4569C230.702 45.4206 228.983 45.0205 228.021 43.9114C226.977 42.7114 227.08 41.0023 226.22 39.6931C222.945 34.5839 213.838 41.4568 207.636 39.4022" fill="#E9EFF4"/>
<path id="Vector_7" d="M302.786 63.8028C307.146 62.9119 310.932 60.6209 315.005 58.9482C319.078 57.2754 323.929 56.2935 327.92 58.0572C329.107 60.6937 325.689 63.0937 322.68 64.0392C316.909 65.8393 310.646 66.3302 304.608 65.4392" fill="#E9EFF4"/>
<path id="Vector_8" d="M566.338 92.6946C565.151 92.8219 563.902 92.7673 562.634 92.4946C557.087 91.44 552.871 87.6399 548.123 84.8762C537.173 78.4397 522.232 77.6033 510.402 82.858C513.206 79.2397 514.618 74.7668 514.311 70.3667L512.613 70.894C493.23 60.9119 470.512 50.548 449.37 57.2572C444.478 58.8391 440.058 61.2028 435.105 62.7119C429.845 64.3484 424.012 65.0211 419.509 67.9121C414.924 70.8031 412.489 77.1851 416.418 80.6579C419.754 83.6216 425.076 82.8216 429.742 83.2216C434.327 83.6216 439.587 87.6763 437.069 91.1673C416.807 99.5857 396.484 108.077 376.221 116.568C385.534 119.259 391.694 128.641 389.689 137.187C382.873 138.241 376.303 134.568 369.426 134.168C359.439 133.714 349.901 141.532 349.696 150.405C349.41 159.278 358.579 167.478 368.567 167.351C376.037 167.278 383.364 163.278 390.61 164.969C390.896 158.915 395.563 153.787 400.352 149.46C409.664 141.169 422.968 133.678 435.412 137.75C439.484 139.059 442.964 141.496 446.361 143.914C453.832 149.169 461.302 154.478 468.793 159.806C471.167 157.642 473.521 155.46 475.895 153.369C479.968 157.187 484.041 160.987 488.175 164.86C490.242 163.606 492.391 162.424 494.458 161.169C495.932 164.587 497.488 167.933 498.982 171.351C499.575 167.606 500.087 163.933 500.598 160.242C505.49 160.369 510.668 160.496 515.089 158.533C519.53 156.624 522.785 151.896 520.922 147.823C519.96 145.66 517.668 143.951 517.218 141.641C516.256 137.041 523.644 133.896 528.454 135.987C533.182 138.023 535.556 142.823 537.562 147.223C538.667 142.75 539.69 138.35 540.816 133.878C545.441 144.678 552.114 154.787 560.403 163.66C545.237 161.096 529.252 162.569 515.069 167.751C519.592 173.406 527.349 176.751 535.126 176.479C538.605 176.406 542.453 175.697 545.114 177.661C547.12 179.17 547.631 181.606 548 183.843C549.187 190.152 550.374 196.388 551.479 202.625C543.477 196.788 531.954 197.443 521.516 197.261C511.078 197.007 498.879 194.443 495.032 185.843C490.897 189.988 489.055 195.897 490.242 201.425C479.436 199.134 467.012 195.461 463.901 185.988C455.469 188.752 444.97 183.97 442.677 176.279C441.859 173.588 441.634 170.297 438.973 168.86C437.356 168.006 435.268 168.133 433.344 168.333C417.298 169.988 401.314 171.569 385.35 173.224C376.631 174.151 367.605 175.079 359.909 178.879C352.214 182.624 346.094 189.988 346.974 197.752C332.259 205.516 319.774 216.753 311.342 229.971C308.681 234.044 306.389 238.717 307.432 243.317C308.169 246.862 310.83 249.881 311.649 253.372C313.061 259.354 309.213 265.136 307.596 271.045C303.012 287.864 317.379 303.7 330.703 316.428C336.987 322.337 344.252 328.774 353.421 329.101C359.111 329.301 364.514 327.065 369.836 325.21C385.063 319.883 401.641 317.446 417.974 318.028C414.269 320.592 418.117 326.174 422.722 327.028C427.307 327.883 432.26 326.556 436.701 327.937C446.832 331.156 445.44 344.356 440.856 352.974C443.148 352.574 445.522 352.174 447.876 351.793C446.627 354.684 445.358 357.575 444.11 360.393C458.007 361.957 463.267 378.193 460.033 390.339C456.861 402.503 448.735 413.667 448.51 426.158C448.449 432.995 450.803 439.631 453.177 446.122C459.112 462.614 465.027 479.105 470.962 495.651C487.541 497.415 497.058 478.687 512.449 472.832C518.22 470.596 525.015 470.141 529.539 466.323C533.898 462.65 532.486 454.032 526.878 454.032C534.492 453.304 541 447.123 541.225 440.286C541.307 438.377 541 436.468 541.287 434.577C541.798 431.886 543.722 429.522 545.564 427.213C557.312 412.231 564.926 395.067 572.539 378.121C574.525 373.575 576.531 369.12 578.516 364.575C586.048 347.683 593.518 330.865 601.05 313.973C603.997 307.337 606.965 300.773 609.912 294.118C605.839 300.1 595.196 299.318 589.118 294.846C582.978 290.391 579.785 283.609 574.975 278.027C570.902 273.227 565.417 268.972 563.493 263.117C562.388 259.772 562.593 256.154 561.938 252.663C560.444 245.099 554.836 238.808 550.988 231.971C547.14 225.135 545.134 216.28 550.538 210.28C566.092 234.389 580.235 259.208 593.027 284.645C594.439 280.7 597.693 277.281 601.828 275.372C604.857 273.918 608.254 273.336 611.447 272.154C619.879 268.863 625.712 260.917 625.712 252.772C625.63 244.626 619.797 236.68 611.283 233.462C607.067 231.88 602.257 231.371 598.266 229.189C594.275 227.098 591.389 222.298 593.907 218.807C596.261 215.516 601.971 215.589 605.88 217.425C609.81 219.334 612.695 222.553 616.379 224.716C619.04 226.298 622.151 227.335 625.037 228.789C640.653 236.735 644.501 254.808 647.776 270.572C649.556 279.045 651.562 287.464 653.936 295.737C654.018 293.955 653.998 292.118 653.998 290.355C653.916 213.952 620.657 144.514 566.338 92.6946ZM596.281 188.152C594.132 188.024 592.147 186.77 590.427 185.588C587.624 183.624 584.799 181.315 583.98 178.224C583.019 174.551 585.004 170.333 582.793 167.06C581.75 165.478 579.908 164.497 578.352 163.387C574.279 160.496 571.311 156.351 570.206 151.896C569.244 147.951 570.636 142.696 575.159 142.041C577.308 141.714 579.662 142.769 580.624 144.532L577.595 145.987C582.691 146.514 585.065 153.351 581.156 156.296C580.644 156.751 579.969 157.151 579.969 157.805C579.969 158.205 580.255 158.587 580.644 158.86C583.817 161.951 588.565 163.06 592.699 165.024C596.834 166.933 600.906 170.479 600.252 174.551C598.921 175.006 597.673 175.406 596.342 175.861C594.93 177.115 596.056 179.352 597.529 180.588C599.003 181.824 600.927 183.079 601.009 184.915C601.009 186.897 598.491 188.279 596.281 188.152Z" fill="#E9EFF4"/>
<path id="Vector_9" d="M598.41 390.303L593.068 393.666C594.93 399.485 591.205 406.303 584.881 408.576C581.545 409.776 577.104 410.303 575.978 413.34C575.036 415.922 577.288 418.54 577.595 421.231C578.086 425.704 573.379 429.049 569.981 432.377C566.584 435.704 564.783 441.959 569.306 443.959C570.35 444.432 571.557 444.522 572.724 444.613C577.636 444.995 583.018 445.122 587.03 442.577C598.532 435.286 587.603 415.503 598.962 408.012C600.579 406.958 602.605 406.194 603.485 404.594C606.166 399.885 596.281 395.212 598.41 390.303Z" fill="#E9EFF4"/>
</g>
</g>
</svg>
