<svg width="222" height="239" viewBox="0 0 222 239" fill="none" xmlns="http://www.w3.org/2000/svg">
<g filter="url(#filter0_d)">
<path d="M165.245 76.8286C160.485 84.635 150.837 90 139.707 90C128.577 90 118.933 84.635 114.169 76.8286H4V160.245H166.565C161.216 154.896 157.974 148.01 157.974 140.489C157.974 125.806 170.291 113.511 186.681 110.486V76.8286H165.245ZM95.3406 144.879C78.0462 144.879 64.0217 133.083 64.0217 118.537C64.0217 103.99 78.0421 92.1936 95.3406 92.1936C112.639 92.1936 126.659 103.986 126.659 118.537C126.659 133.087 112.635 144.879 95.3406 144.879Z" fill="white"/>
<path d="M194.505 160.231C207.476 160.231 217.992 151.386 217.992 140.475C217.992 129.565 207.476 120.72 194.505 120.72C181.533 120.72 171.018 129.565 171.018 140.475C171.018 151.386 181.533 160.231 194.505 160.231Z" fill="white"/>
<path d="M139.707 79.0255C148.355 79.0255 155.366 73.1284 155.366 65.854C155.366 58.5796 148.355 52.6825 139.707 52.6825C131.058 52.6825 124.048 58.5796 124.048 65.854C124.048 73.1284 131.058 79.0255 139.707 79.0255Z" fill="white"/>
<path d="M38.2214 19.7555L28.3268 65.854H111C111 52.5399 123.878 41.708 139.707 41.708C155.536 41.708 168.414 52.5399 168.414 65.854H186.681H199.729V76.8285V110.105C201.283 110.295 202.809 110.56 204.294 110.907L218 47.0526L38.2214 19.7555Z" fill="#FFFDFD"/>
<path d="M140.309 199.233L128.523 191.274C127.719 190.729 126.436 190.73 125.634 191.277L105.8 204.764V146.433C105.8 145.642 104.874 145 103.733 145H87.2C86.0593 145 85.1334 145.642 85.1334 146.433V204.764L65.2997 191.277C64.4978 190.732 63.2164 190.73 62.4126 191.274L50.6263 199.233C50.2255 199.503 50 199.872 50 200.259C50 200.646 50.2274 201.016 50.6263 201.286L94.0263 230.593C94.4271 230.864 94.9481 231 95.4668 231C95.9875 231 96.5063 230.864 96.9093 230.593L140.309 201.286C140.708 201.016 140.933 200.646 140.933 200.259C140.933 199.872 140.708 199.503 140.309 199.233Z" fill="#FAFAFA"/>
</g>
<defs>
<filter id="filter0_d" x="0" y="0" width="222" height="239" filterUnits="userSpaceOnUse" color-interpolation-filters="sRGB">
<feFlood flood-opacity="0" result="BackgroundImageFix"/>
<feColorMatrix in="SourceAlpha" type="matrix" values="0 0 0 0 0 0 0 0 0 0 0 0 0 0 0 0 0 0 127 0"/>
<feOffset dy="4"/>
<feGaussianBlur stdDeviation="2"/>
<feColorMatrix type="matrix" values="0 0 0 0 0 0 0 0 0 0 0 0 0 0 0 0 0 0 0.25 0"/>
<feBlend mode="normal" in2="BackgroundImageFix" result="effect1_dropShadow"/>
<feBlend mode="normal" in="SourceGraphic" in2="effect1_dropShadow" result="shape"/>
</filter>
</defs>
</svg>
