<svg width="513" height="513" viewBox="0 0 513 513" fill="none" xmlns="http://www.w3.org/2000/svg">
<g id="shield 1" clip-path="url(#clip0)">
<path id="Vector" d="M472.417 64.449L259.084 0.448988C257.087 -0.149012 254.958 -0.149012 252.961 0.448988L39.628 64.449C35.11 65.798 32.013 69.953 32.012 74.668V309.335C32.012 403.65 175.841 487.554 252.855 511.532C254.938 512.187 257.172 512.187 259.255 511.532C336.183 487.553 480.012 403.649 480.012 309.335V74.667C480.013 69.958 476.926 65.805 472.417 64.449Z" fill="#2196F3"/>
<path id="Vector_2" d="M234.678 341.334C231.847 341.339 229.13 340.219 227.126 338.219L141.793 252.886C137.701 248.649 137.818 241.896 142.055 237.803C146.189 233.811 152.742 233.811 156.875 237.803L234.678 315.584L376.459 173.803C380.552 169.566 387.304 169.448 391.542 173.541C395.779 177.634 395.896 184.386 391.804 188.624C391.718 188.713 391.631 188.8 391.542 188.886L242.209 338.219C240.21 340.213 237.502 341.333 234.678 341.334Z" fill="#FAFAFA"/>
</g>
<defs>
<clipPath id="clip0">
<rect width="512.023" height="512.023" fill="white"/>
</clipPath>
</defs>
</svg>
