<svg width="222" height="239" viewBox="0 0 222 239" fill="none" xmlns="http://www.w3.org/2000/svg">
<g id="Frame 4" filter="url(#filter0_d)">
<g id="money 1" clip-path="url(#clip0)">
<g id="Group">
<g id="Group_2">
<path id="Vector" d="M56.7552 154.171C61.5148 146.365 71.1631 141 82.2931 141C93.423 141 103.067 146.365 107.831 154.171H218V70.7555L55.4351 70.7555C60.7841 76.1035 64.0258 82.9898 64.0258 90.511C64.0258 105.194 51.709 117.489 35.3188 120.514V154.171H56.7552ZM126.659 86.1205C143.954 86.1205 157.978 97.9168 157.978 112.463C157.978 127.01 143.958 138.806 126.659 138.806C109.361 138.806 95.3406 127.014 95.3406 112.463C95.3406 97.9134 109.365 86.1205 126.659 86.1205Z" fill="#FF0000"/>
</g>
</g>
<g id="Group_3">
<g id="Group_4">
<path id="Vector_2" d="M27.4951 70.7691C14.5236 70.7691 4.00803 79.6139 4.00803 90.5246C4.00803 101.435 14.5236 110.28 27.4951 110.28C40.4667 110.28 50.9822 101.435 50.9822 90.5246C50.9822 79.6139 40.4667 70.7691 27.4951 70.7691Z" fill="#FF0000"/>
</g>
</g>
<g id="Group_5">
<g id="Group_6">
<path id="Vector_3" d="M82.2931 151.974C73.6446 151.974 66.6336 157.872 66.6336 165.146C66.6336 172.42 73.6446 178.317 82.2931 178.317C90.9415 178.317 97.9525 172.42 97.9525 165.146C97.9525 157.872 90.9415 151.974 82.2931 151.974Z" fill="#FF0000"/>
</g>
</g>
<g id="Group_7">
<g id="Group_8">
<path id="Vector_4" d="M183.779 211.245L193.673 165.146H111C111 178.46 98.122 189.292 82.2931 189.292C66.4641 189.292 53.5861 178.46 53.5861 165.146L35.3188 165.146H22.2713V154.171V120.895C20.7171 120.705 19.1911 120.44 17.7055 120.093L3.99998 183.947L183.779 211.245Z" fill="#FF0000"/>
</g>
</g>
</g>
<g id="Group_9">
<g id="Group_10">
<path id="Vector_5" d="M81.6907 31.7669L93.477 39.7263C94.2808 40.271 95.5644 40.2695 96.3663 39.7234L116.2 26.2357V84.5667C116.2 85.3579 117.126 86 118.267 86H134.8C135.941 86 136.867 85.3579 136.867 84.5667V26.2357L156.7 39.7234C157.502 40.2682 158.784 40.2695 159.587 39.7263L171.374 31.7669C171.775 31.4975 172 31.1276 172 30.7406C172 30.3536 171.773 29.9838 171.374 29.7143L127.974 0.40699C127.573 0.136055 127.052 0 126.533 0C126.012 0 125.494 0.136223 125.091 0.40699L81.6907 29.7143C81.2918 29.9838 81.0666 30.3536 81.0666 30.7406C81.0666 31.1276 81.2918 31.4975 81.6907 31.7669Z" fill="#FF0000"/>
</g>
</g>
</g>
<defs>
<filter id="filter0_d" x="0" y="0" width="222" height="239" filterUnits="userSpaceOnUse" color-interpolation-filters="sRGB">
<feFlood flood-opacity="0" result="BackgroundImageFix"/>
<feColorMatrix in="SourceAlpha" type="matrix" values="0 0 0 0 0 0 0 0 0 0 0 0 0 0 0 0 0 0 127 0"/>
<feOffset dy="4"/>
<feGaussianBlur stdDeviation="2"/>
<feColorMatrix type="matrix" values="0 0 0 0 0 0 0 0 0 0 0 0 0 0 0 0 0 0 0.25 0"/>
<feBlend mode="normal" in2="BackgroundImageFix" result="effect1_dropShadow"/>
<feBlend mode="normal" in="SourceGraphic" in2="effect1_dropShadow" result="shape"/>
</filter>
<clipPath id="clip0">
<rect width="214" height="180" fill="white" transform="translate(218 231) rotate(-180)"/>
</clipPath>
</defs>
</svg>
